<?xml version="1.0" encoding="UTF-8"?>
<svg id="Layer_2" data-name="Layer 2" xmlns="http://www.w3.org/2000/svg" viewBox="0 0 123.71 144.11">
  <defs>
    <style>
      .cls-1 {
        fill: #e7e2cf;
        stroke-width: 0px;
      }
    </style>
  </defs>
  <g id="Layer_1-2" data-name="Layer 1">
    <g>
      <g>
        <path class="cls-1" d="M34.45,124.86c2.4-1.54,4.64-3.09,6.99-4.45,4.77-2.76,9.92-4.42,15.44-4.59,4.42-.13,8.68.62,12.55,3.03,2.97,1.85,6.21,2.47,9.65,1.52,3.36-.93,4.85-3.82,3.65-7.11-.71-1.95-2.1-3.39-3.74-4.55-6.21-4.38-12.95-5.37-20.12-2.88-8.17,2.84-14.78,7.98-20.55,14.28-1,1.09-1.96,2.23-2.91,3.37-.32.39-.58.83-.95,1.37Z"/>
        <path class="cls-1" d="M75.36,101.01c-.27-.04-.53-.06-.8-.12-3.52-.67-7.06-.75-10.61-.23-6.67.96-12.49,3.84-17.7,8.02-2.76,2.2-5.67,4.16-8.95,5.5-10.05,4.14-19.19,2.73-27.18-4.77-2.49-2.34-4.45-5.05-5.99-8.02-.82-1.55-1.51-3.17-2.11-4.85-.76-2.14-1.31-4.34-1.94-6.52-.03-.11-.06-.21-.1-.32.03,0,.04,0,.06,0,.28-.02.35.02.38.07.04.06.07.12.11.18.24.41.49.82.73,1.23,2.52,4.38,5.37,8.52,9.01,12.07,8.02,7.84,17.2,9.25,27.1,4.03,2.61-1.38,5-3.17,7.54-4.71,7.5-4.55,15.5-6.48,24.21-4.38,2.24.53,4.38,1.32,6.22,2.83Z"/>
        <path class="cls-1" d="M8.39,94.76c2.4-3.49,4.05-7.2,3.79-11.56-.17-2.77-.17-5.55.66-8.25,1.14-3.74,3.11-7.08,6.44-9.08,3.89-2.34,5.66-5.71,6.46-9.93.4-2.1.85-4.23,1.62-6.21,1.53-3.92,4.07-4.57,7.74-2.51,6.02,3.38,6.07,12.09,3.09,15.97-1.59,2.07-3.58,3.32-6.32,3.12-1.23-.09-2.47-.02-3.92-.02,8.49,3.56,13.55-.62,15.32-7.38.4-1.52.49-3.17.43-4.75-.22-6.29-4.77-11.6-10.8-12.77-3-.58-5.57.26-7.67,2.46-2.36,2.47-3.34,5.59-3.99,8.84-.37,1.83-.66,3.7-1.24,5.47-.32.98-.98,2.05-1.8,2.64-7.47,5.37-10.38,12.55-8.65,21.54.71,3.71.47,7.29-.72,10.85-.17.51-.3,1.04-.44,1.56Z"/>
        <path class="cls-1" d="M104.46,107.37c.02-5.06-4.04-9.12-9.05-9.08-4.99.05-8.95,4.05-8.96,9.07,0,5.02,3.96,9.03,8.95,9.05,5.07.02,9.05-3.95,9.06-9.04Z"/>
        <path class="cls-1" d="M23.28,68.13c.1.19.19.39.32.57,3.19,4.59,5.35,9.57,6.2,15.13.85,5.55,4.06,9.63,8.51,12.8,1.68,1.2,3.57,2.11,5.37,3.16.12-.16.24-.32.36-.48-.93-.87-1.91-1.69-2.79-2.61-3.19-3.36-6.13-6.91-7.51-11.44-.52-1.71-.75-3.52-1.27-5.23-1.43-4.65-4.06-8.49-8.02-11.37-.33-.24-.69-.44-1.03-.65-.04.04-.09.09-.13.13Z"/>
        <path class="cls-1" d="M34.97,101.58c-.33-1.77-1.06-3.41-2.41-4.55-1.71-1.45-3.53-2.84-5.5-3.9-1.96-1.06-3.52-2.4-4.71-4.25-1.24-1.94-2.5-3.87-3.75-5.8-.14-.22-.3-.42-.71-.6.04.86-.08,1.77.16,2.58.66,2.19,1.35,4.39,2.27,6.48.9,2.07,2.56,3.49,4.67,4.38,1.72.73,3.47,1.43,5.09,2.35,1.68.95,3.21,2.16,4.88,3.3Z"/>
      </g>
      <g>
        <path class="cls-1" d="M60.84,144.1C25.35,143.74,2.43,115.29.1,90.03c-.01-.11-.03-.22-.03-.33.28-.02.35.02.38.07.04.06.07.12.11.18.84,4.01,2.05,7.84,3.59,11.45,9.48,22.28,31.37,36.5,55.89,35.91,29.12-.71,53.24-22.74,56.66-52.33,3.61-31.28-17.97-59.17-48.35-64.52,8.08-.58,26.14,5.83,37.61,17.81,10.19,10.66,16.36,23.2,17.54,37.88,2.99,37.46-25.46,68.34-62.65,67.95Z"/>
        <path class="cls-1" d="M86.27,31.69c-6.72.98-10.85,5.28-15.05,9.5,4.75-2.67,8.62-7.12,14.59-7.29.26,4.17-4.37,9.32-10.46,11.67-7.43,2.86-14.72,1.47-19.05-3.84.88-.12,1.59-.29,2.31-.31,4.61-.13,8.23-2.12,11.03-5.74,1.15-1.49,2.28-3.04,3.61-4.37,3.8-3.81,8.56-3.78,13.03.39Z"/>
        <path class="cls-1" d="M67.94,0c.6.89,1.06,1.49,1.44,2.14,1.71,2.91,4.21,4.72,7.49,5.46,1.09.25,2.18.49,3.27.76,5.17,1.32,7.01,4.23,6.08,9.34-4.89-4.17-11.55-6.48-11.76-6.18,3.55,2.06,7.56,3.58,9.79,7.81-5.26,1.07-9.24-.87-12.72-4.19-4.5-4.28-5.84-9.67-3.6-15.15Z"/>
        <path class="cls-1" d="M60.67,18.22c-6.65,1.88-10.77,4.67-10.66,4.96,1.65-.69,3.26-1.53,4.97-2.02,1.77-.51,3.64-.68,5.65-.62-1.61,3.91-4.64,5.93-8.52,6.79-6.4,1.4-11.17-.37-14.66-5.54.98,0,1.77-.07,2.54.01,3.37.36,6.24-.66,8.77-2.89,1.22-1.07,2.54-2.09,3.98-2.81,3.02-1.53,5.94-.62,7.91,2.12Z"/>
      </g>
    </g>
  </g>
</svg>